# xmcd
# 
# Track frame offsets:
#     150
#     32242
#     57305
#     80732
#     109352
#     133090
# 
# Disc length: 2107
# 
# Revision: 1
# Processed by: cddbd v1.5.2PL0 Copyright (c) Steve Scherf et al.
# Submitted via: BonkEnc v1.0.8
# 
DISCID=55083906
DTITLE=Hubert Eaves - Esoteric Funk
DYEAR=1976
DGENRE=Fusion
TTITLE0=Call To Awarenes
TTITLE1=Painful Pleasure
TTITLE2=Slow Down
TTITLE3=Flead Dancing
TTITLE4=Song For Marlene
TTITLE5=Under Standing
EXTD=YEAR: 2002
EXTT0=
EXTT1=
EXTT2=
EXTT3=
EXTT4=
EXTT5=
PLAYORDER=
